<?xml version="1.0" encoding="utf-8"?>
<!-- Generator: Adobe Illustrator 23.1.1, SVG Export Plug-In . SVG Version: 6.00 Build 0)  -->
<svg version="1.1" id="Layer_1" xmlns="http://www.w3.org/2000/svg" xmlns:xlink="http://www.w3.org/1999/xlink" x="0px" y="0px"
	 viewBox="0 0 512 512" style="enable-background:new 0 0 512 512;" xml:space="preserve">
<style type="text/css">
	.st0{fill:#FF7F2E;}
	.st1{fill:#FFFFFF;}
</style>
<title>Product Idea</title>
<g>
	<path class="st0" d="M471.4,512H40.6C18.2,512,0,493.8,0,471.4L0,40.8C0,18.4,18.2,0.3,40.6,0.3h430.8c22.4,0,40.6,18.2,40.6,40.6
		v430.6C512,493.8,493.8,512,471.4,512z"/>
	<g>
		<path class="st1" d="M380.5,346L309,217.5l0.5-59.2h9.8c5.7,0,10.3-4.6,10.3-10.3c0-5.7-4.6-10.3-10.3-10.3H195.6
			c-5.7,0-10.3,4.6-10.3,10.3c0,5.7,4.6,10.3,10.3,10.3h9.8l0.5,59.2L134.4,346c-12.6,22.7-4.3,51.3,18.4,63.9
			c7,3.8,14.8,5.9,22.7,5.9h163.9c26,0,47-21.1,47-47C386.4,360.8,384.4,353,380.5,346z M225.2,225.1c0.9-1.6,1.3-3.3,1.3-5.2
			l-0.5-61.7h62.9l-0.5,61.7c0,1.8,0.5,3.6,1.3,5.2l36.8,66.2c-20.7-0.6-41.3-3.9-61.2-9.8c-21.4-6.2-43.4-9.7-65.7-10.4
			L225.2,225.1z"/>
		<ellipse class="st1" cx="226.5" cy="86.1" rx="20.6" ry="20.6"/>
		<ellipse class="st1" cx="293.5" cy="101.6" rx="15.5" ry="15.5"/>
		<ellipse class="st1" cx="278.1" cy="55.2" rx="10.3" ry="10.3"/>
	</g>
</g>
</svg>